<?xml version="1.0" encoding="UTF-8" standalone="no"?>
<!-- Created with Inkscape (http://www.inkscape.org/) -->

<svg
   version="1.1"
   id="svg1"
   width="942.66669"
   height="1001.3333"
   viewBox="0 0 942.66669 1001.3333"
   xmlns="http://www.w3.org/2000/svg"
   xmlns:svg="http://www.w3.org/2000/svg">
  <defs
     id="defs1" />
  <g
     id="g1">
    <path
       style="fill:#ffffff"
       d="m 461.80422,772.81779 -8,-1.06662 -3.33333,-1.31784 -3.33334,-1.31785 -6.66666,-0.34856 -6.66667,-0.34856 -0.66667,-0.72872 -0.66666,-0.72873 -6.66667,-1.51732 -6.66667,-1.51732 -8.54168,-1.98013 -8.54169,-1.98013 -2.12498,0.67064 -2.12498,0.67065 1.77494,-1.27139 1.77495,-1.27138 -5.51444,-0.8818 -5.51444,-0.88179 -5.59384,-2.5206 -5.59384,-2.5206 -5.33333,-1.05238 -5.33334,-1.05239 -1.33333,-0.19515 -1.33333,-0.19515 -2.66667,-1.12986 -2.66667,-1.12985 -1.7619,-1.74128 -1.76191,-1.74127 h -3.65334 -3.65335 l -2.61351,-2.43485 -2.61351,-2.43486 -1.63791,0.54597 -1.6379,0.54596 v -1.52313 -1.52313 l -1.1104,0.68626 -1.11041,0.68627 -7.22293,-3.88801 -7.22293,-3.888 -3.07869,-0.0529 -3.07869,-0.0529 0.82405,-1.33333 0.82405,-1.33334 h -2.74536 -2.74536 v -1.33333 -1.33333 h -2.66666 -2.66667 l -0.003,-1 -0.003,-1 -13.99748,-7.21452 -13.99747,-7.21451 v -0.90541 -0.90541 l -5.33333,-1.76015 -5.33334,-1.76016 v -0.91742 -0.91743 l -5.17523,-2.3337 -5.17523,-2.33371 -3.4905,-0.20212 -3.49049,-0.20213 -9.4e-4,-1.66667 -9.4e-4,-1.66666 h -2.48686 -2.48685 l -3.3346,-2.623 -3.33459,-2.62299 -0.68566,0.68566 -0.68566,0.68566 -6.08282,-3.396 -6.08281,-3.396 -1.74341,-0.0333 -1.74341,-0.0333 -5.56074,-5.24935 -5.56074,-5.24935 -0.82683,-2.6051 -0.82683,-2.6051 1.38757,-0.85757 1.38757,-0.85756 -0.0937,-2.25465 -0.0937,-2.25464 -1.1459,2.66667 -1.14591,2.66666 -0.11413,-2.66666 -0.11413,-2.66667 -1.2925,2 -1.2925,2 -0.0204,-4.32516 -0.0204,-4.32517 -4.33334,0.5533 -4.33333,0.55329 -2.50057,-1.83074 -2.50056,-1.83074 0.79205,-2.06405 0.79205,-2.06406 h -2.39951 -2.39951 l -1.8392,-3.43657 -1.8392,-3.43658 -2.38611,-1.277 -2.38611,-1.27701 v -1.85785 -1.85785 l -1.71055,-1.7619 -1.71055,-1.76191 -3.23894,-4.60302 -3.23894,-4.60302 -4.2045,-4.06365 -4.2045,-4.06364 -2.20959,-3.4788 -2.20959,-3.47879 0.84537,-2.20299 0.84537,-2.203 -2.04223,0.78368 -2.04223,0.78368 0.37709,-3.43523 0.37709,-3.43522 h -1.11953 -1.11954 l 0.30289,-5 0.30288,-5 -2.93121,-1.28655 -2.93122,-1.28656 -0.90404,-5.351 -0.90405,-5.35099 -2.02038,-3.08349 -2.02038,-3.0835 -0.96533,-5.27895 -0.96532,-5.27896 1.48763,-0.0204 1.48764,-0.0204 -1.71183,-1.08618 -1.71183,-1.08619 0.85448,-2.22673 0.85448,-2.22673 h -1.37004 -1.37005 l -0.87855,-4 -0.87854,-4 h -1.06564 -1.06563 l -1.65685,-4 -1.65686,-4 h -2.33824 -2.33824 v -3.44526 -3.44526 l 2.83334,0.72534 2.83333,0.72533 -2.84395,-2.28008 -2.84394,-2.28007 -1.45451,-2.84717 -1.45451,-2.84717 -0.70061,-5.8195 -0.70061,-5.8195 -0.78961,-6 -0.78961,-6 -1.48942,-4.66666 -1.48943,-4.66667 -0.89183,-1.33333 -0.89184,-1.33334 -2.23782,-9.0486 -2.23782,-9.04861 0.83094,-2.61806 0.83094,-2.61806 h -1.22981 -1.22981 l -0.24605,-8.33333 -0.24606,-8.33334 -1.11916,-8 -1.11917,-8 1.2275,-0.46299 1.22749,-0.46299 -1.43953,-1.73453 -1.43953,-1.73453 0.53036,-6.17117 0.53035,-6.17118 0.85353,-0.85353 0.85352,-0.85352 v 1.82222 1.82223 l 1.45685,-1.45686 1.45686,-1.45685 -1.45686,-2.72216 -1.45685,-2.72216 v -0.89697 -0.89697 l 2,0.76747 2,0.76747 v -2.66667 -2.66666 l 1.91581,-0.73517 1.91581,-0.73516 -0.83212,-2.22299 -0.83212,-2.22299 2.17039,1.76415 2.17039,1.76415 -0.73007,1.90252 -0.73006,1.90251 1.14265,-0.008 1.14265,-0.008 2.62071,-4.3249 2.6207,-4.3249 0.10824,-2 0.10824,-2 1.60439,0.33333 1.60439,0.33333 v -1.96926 -1.96926 l 3.46413,-2.26979 3.46413,-2.26978 2.30005,1.43641 2.30006,1.43641 1.47359,-2.35959 1.47359,-2.35959 -1.35395,-1.35395 -1.35395,-1.35395 1.59858,-0.98798 1.59858,-0.98797 1.11176,1.79887 1.11177,1.79887 1.0725,-1.14392 1.07249,-1.14393 -1.66666,-0.59524 -1.66667,-0.59524 v -1.88889 -1.88888 h 1.87517 1.87518 l -0.71206,-3 -0.71205,-3 -2.16312,-1.72453 -2.16312,-1.72452 0.22014,-5.60881 0.22015,-5.60881 3.29588,-6.26175 3.29588,-6.26175 0.81731,0.8173 0.81731,0.81731 v -4.31746 -4.31746 l 1.66666,-1.75702 1.66667,-1.75702 2.66667,-3.7396 2.66666,-3.73961 3,-2.64858 3,-2.64859 v -2.28809 -2.2881 l 4.60857,-4.04638 4.60857,-4.04638 -1.60857,-0.65314 -1.60857,-0.65315 5,-0.10527 5,-0.10526 v -1.33333 -1.33334 h 1.95309 1.95309 l 1.24876,-2.33333 1.24877,-2.33333 -0.1776,-0.66667 -0.1776,-0.66667 2.16679,-3.09353 2.1668,-3.09353 0.61202,1.7602 0.61203,1.7602 1.01435,-6 1.01434,-6 1.293,-1.603 1.293,-1.603 0.36215,-3.29904 0.36214,-3.29905 -1.0906,-1.76462 -1.09059,-1.76463 h -1.60419 -1.60419 l -0.55556,-1.66666 -0.55555,-1.66667 h 1.4026 1.40259 l -0.76747,-2 -0.76747,-2 h -3.14377 -3.14377 l -1.44714,2.70401 -1.44714,2.70401 -1.26644,-0.7827 -1.26644,-0.7827 v 2.16854 2.16854 l -2.83364,-0.89936 -2.83363,-0.89936 0.79329,1.28357 0.79328,1.28357 -3.29298,-0.6295 -3.29298,-0.62949 v -2.58992 -2.58992 l 1.32744,0.82041 1.32745,0.8204 3.10783,-3.35341 3.10784,-3.35341 3.56472,-1.35531 3.56472,-1.3553 v -1.50899 -1.50898 l -1.83753,0.70512 -1.83753,0.70513 -1.4958,-1.49581 -1.49581,-1.4958 v -2.2445 -2.24449 l 3,-0.96284 3,-0.96285 1.33333,-0.26886 1.33334,-0.26887 2.33333,-1.06645 2.33333,-1.06645 v -1.93604 -1.93603 l 1.33334,0.82404 1.33333,0.82405 v -1.93415 -1.93414 l 3.33333,-0.83662 3.33334,-0.83661 v -1.66911 -1.66911 l 6,-3.27764 6,-3.27764 v -1.1705 -1.1705 l 1.74891,0.67112 1.7489,0.67112 3.2511,-2.49882 3.25109,-2.49882 2.33333,-0.0297 2.33334,-0.0296 v -1.40137 -1.40137 l 4.33333,-1.95186 4.33333,-1.95185 2,-1.08871 2,-1.08871 4.35439,-2.17481 4.3544,-2.1748 1.9677,0.75508 1.9677,0.75507 0.76402,-1.99099 0.76401,-1.99099 2.58056,0.67483 2.58056,0.67483 v -1.48885 -1.48884 h 1.87384 1.87385 l 5.12615,-4.33333 5.12616,-4.33333 -0.41449,-3.58992 -0.41449,-3.58991 2.41449,-0.0609 2.41449,-0.0609 5,-0.8284 5,-0.82841 v -1.18746 -1.18746 h 2.66666 2.66667 v -1.42318 -1.42318 l 2.66667,0.75651 2.66666,0.75652 2.83364,0.80951 2.83364,0.80951 -0.91233,-1.47617 -0.91233,-1.47618 h 2.15738 2.15738 l -0.82404,1.33333 -0.82405,1.33333 h 2.74536 2.74535 v -1.33333 -1.33333 h 2 2 v -1.85162 -1.85161 l 5,-1.07642 5,-1.07642 2,-0.0844 2,-0.0844 3.03735,-1.72118 3.03734,-1.72118 -0.72337,-1.17044 -0.72337,-1.17044 2.9503,-0.93639 2.9503,-0.93639 -3.07865,-2.49294 -3.07865,-2.49294 h 0.72758 0.72758 l 3.75346,1.34111 3.75347,1.34111 -2.58818,-2.00778 -2.58817,-2.00777 3.92151,-0.006 3.9215,-0.006 4.29962,-4.02991 4.29962,-4.0299 0.68639,-4e-4 0.68638,-4e-4 1.78708,-0.68577 1.78708,-0.68577 -0.21089,-2.94442 -0.21088,-2.94443 -2.89553,-0.42606 -2.89553,-0.42607 v -1.266 -1.266 l 3.33333,0.83661 3.33333,0.83661 v -1.47788 -1.47787 h -2.06591 -2.06591 l 0.30649,-6.717 0.30649,-6.717 1.85601,0.71222 1.85601,0.71221 2.8908,-1.5471 2.8908,-1.54711 2.90441,-0.31883 2.9044,-0.31882 1.705,4.11623 1.70499,4.11623 -1.59679,0.53226 -1.59679,0.53226 v 2.23909 2.23909 l 3.4228,2.57042 3.4228,2.57041 8.24387,0.28522 8.24387,0.28522 4.66667,0.67251 4.66666,0.67251 1.42752,0.45499 1.42751,0.45499 3.54849,-4 3.54848,-4 1.18777,1.80432 1.18777,1.80433 2.83623,-1.5179 2.83623,-1.51791 v -2.77519 -2.77519 l 3.66667,0.91723 3.66667,0.91723 4.66666,0.50926 4.66667,0.50925 -2.66667,-0.7338 -2.66666,-0.7338 -1.33334,-1.40016 -1.33333,-1.40015 2.44238,0.86291 2.44239,0.8629 h 2.0336 2.0336 l -0.76747,2 -0.76747,2 h 2.1008 2.10081 l -0.76748,-2 -0.76747,-2 h 1.29149 1.29149 v 3.33333 3.33334 h 1.41202 1.41202 l -0.74164,-1.2 -0.74164,-1.2 h 4.50326 4.50326 l -0.66767,2.55315 -0.66766,2.55315 2.49402,-0.89347 2.49403,-0.89346 1.48786,-1.14122 1.48786,-1.14121 5.725,2.56316 5.72501,2.56316 4.6611,-0.7564 4.6611,-0.75639 -0.89572,1.4493 -0.89571,1.4493 1.26295,0.78055 1.26295,0.78054 0.92547,-1.49743 0.92546,-1.49743 1.16667,1.80901 1.16666,1.80902 1.14779,-1.77846 1.14778,-1.77846 0.86346,2.25013 0.86345,2.25013 2.08535,-0.80022 2.08535,-0.80022 2.90341,1.52815 2.90341,1.52816 0.66667,0.9852 0.66667,0.98521 7.91621,0.77134 7.91622,0.77134 1.6128,-1.3385 1.61281,-1.33851 -0.69599,-2.66149 -0.696,-2.66148 2.07196,-2.28949 2.07196,-2.2895 0.095,-1 0.095,-1 v -1.49659 -1.49659 l 1.88129,1.56134 1.8813,1.56133 0.86406,-1.39807 0.86406,-1.39808 h 3.62499 3.62499 l 2.60098,3 2.60099,3 -0.3468,1.5956 -0.34679,1.5956 4.04213,2.98848 4.04213,2.98847 v 1.74926 1.74925 h 1.55556 1.55555 l -0.81495,0.81496 -0.81496,0.81496 3.78521,3.18504 3.78521,3.18504 h 0.94896 0.94897 l 2.622,3.33334 2.622,3.33333 h 1.99846 1.99847 l 1.90476,1.90476 1.90476,1.90476 v 1.28592 1.28592 l 2.10905,0.80932 2.10905,0.80932 h 2.95847 2.95846 l 3.58875,1.66667 3.58875,1.66666 0.0104,1.66667 0.0104,1.66667 h 1.33333 1.33333 v 2.01079 2.0108 l 5.33334,2.13398 5.33333,2.13397 0.15789,1.5219 0.1579,1.52189 -0.13081,0.91875 -0.13081,0.91874 2.81575,0.89369 2.81575,0.89368 -1.84283,1.16715 -1.84284,1.16716 2.41202,0.0204 2.41203,0.0204 -0.73068,1.18226 -0.73068,1.18225 1.98532,1.64767 1.98532,1.64767 v 1.87859 1.87859 l 1.99235,0.76453 1.99234,0.76453 -0.61353,0.99272 -0.61354,0.99271 3.4633,3.0113 3.4633,3.0113 2.15789,0.42093 2.15789,0.42092 1,0.10201 1,0.10202 -0.33333,1.66667 -0.33333,1.66666 1.61868,-0.31734 1.61868,-0.31733 -0.76133,1.984 -0.76134,1.98401 h 2.14266 2.14265 v 3.33333 3.33333 h 1.29148 1.29149 l -0.70434,1.8355 -0.70435,1.83549 3.41286,0.85658 3.41286,0.85657 v 1.65813 1.65814 l 3.33333,2.50322 3.33333,2.50323 v 0.92043 0.92042 l 6.65847,7.22615 6.65847,7.22614 0.0526,-2 0.0526,-2 2.50269,3 2.5027,3 h 1.90503 1.90503 l 6.16617,6.79723 6.16617,6.79722 0.70277,2.86944 0.70277,2.86944 -0.76547,-1.66666 -0.76547,-1.66667 h -1.06679 -1.06678 l -0.69252,3.62266 -0.69251,3.62267 2.87041,2.51718 2.87041,2.51719 2.92785,2.32862 2.92784,2.32862 0.43925,3.1982 0.43925,3.19819 1.27916,2 1.27915,2 0.12379,0.66667 0.12379,0.66667 1.0231,5.33333 1.0231,5.33333 1.47471,4.33334 1.47471,4.33333 h 1.02364 1.02364 l -0.76748,2 -0.76747,2 h 1.55468 1.55467 l -0.74968,1.21301 -0.74968,1.21301 0.8107,2.11267 0.81071,2.11266 0.9269,-0.57286 0.92691,-0.57286 0.30355,4.91385 0.30355,4.91385 1.46507,4.66667 1.46507,4.66667 1.96204,2.24931 1.96205,2.24932 -0.92281,1.49313 -0.92281,1.49313 0.8176,3.25755 0.81759,3.25756 h 2.49312 2.49311 l -0.18518,2.33333 -0.18519,2.33333 2.33334,-0.39178 2.33333,-0.39178 v 2.05845 2.05845 h -1.14844 -1.14844 l 0.63721,3.33333 0.63721,3.33333 h 1.1779 1.17789 v 2.75432 2.75433 l 1.60831,2.91234 1.60831,2.91235 0.31597,4.33317 0.31598,4.33317 2.07572,2.96351 2.07571,2.9635 v 2.95796 2.95797 l 1.44137,0.89082 1.44137,0.89081 -0.79421,3.1644 -0.79421,3.16439 2.68617,1.67754 2.68618,1.67755 v 3.10784 3.10784 l 2.00443,2.00443 2.00442,2.00442 -0.71603,6.23367 -0.71604,6.23367 0.10645,5.12696 0.10644,5.12695 -1.55906,4.87305 -1.55907,4.87304 -2.4217,2.66667 -2.42171,2.66666 -0.0698,1.33334 -0.0698,1.33333 -1.67758,2.0197 -1.67758,2.01969 -1.4275,3.98687 -1.42751,3.98687 1.01285,3.78719 1.01285,3.7872 -1.21461,3.19466 -1.2146,3.19466 0.77191,2.01158 0.77192,2.01158 -1.80932,0.0204 -1.80932,0.0204 2,1.31292 2,1.31292 -1.83749,1.18426 -1.83748,1.18426 0.91617,1.48241 0.91618,1.4824 -1.74536,0.0122 -1.74535,0.0122 -0.36501,9.55606 -0.36501,9.55606 -1.34603,1.62188 -1.34603,1.62187 2.61989,9.45422 2.6199,9.45422 -1.2772,0.78936 -1.2772,0.78935 0.0261,4.23301 0.0261,4.233 -0.25778,3.66667 -0.25778,3.66667 h -0.91116 -0.91116 l -0.96239,3 -0.9624,3 0.15653,1.99999 0.15652,2 -4.68297,5.24221 -4.68297,5.2422 v 1.46148 1.46147 l -2.33334,1.99786 -2.33333,1.99787 -1.33333,0.31403 -1.33334,0.31404 -0.0685,4.31776 -0.0685,4.31775 h -1.90307 -1.90308 l -0.29542,3.8435 -0.29542,3.8435 -2.78843,2.96815 -2.78843,2.96814 -1.36444,4.9416 -1.36444,4.9416 -2.39591,2.39591 -2.39591,2.39591 -2.47166,4.18418 -2.47165,4.18418 h -1.16547 -1.16546 l -2.5027,3 -2.5027,3 -0.0444,1.66666 -0.0444,1.66667 -2.37755,2.37755 -2.37755,2.37755 -2.38644,4.62245 -2.38645,4.62245 -1.68173,2.97883 -1.68174,2.97883 -8.78689,9.233 -8.78688,9.233 -0.97982,-0.8785 -0.97983,-0.87849 0.90897,2.52021 0.90898,2.52021 -2.5203,1.76529 -2.5203,1.76529 -0.83249,4.16241 -0.83248,4.16242 -1.51683,-0.50561 -1.51682,-0.50561 -3.57452,3.39103 -3.57452,3.39102 -4.09691,3.33334 -4.09691,3.33333 -2.97325,1.77232 -2.97325,1.77232 -2.84451,0.5478 -2.84451,0.5478 -0.44884,1.34655 -0.44885,1.34654 h -1.4297 -1.4297 l -4.37023,3.33334 -4.37023,3.33333 h -1.48337 -1.48337 l -6.26165,3.33333 -6.26165,3.33334 h -2.39969 -2.39969 l -2.86233,2.66666 -2.86233,2.66667 h -2.27713 -2.27713 l -3.80939,4.33333 -3.80938,4.33333 -7.93216,3.58178 -7.93215,3.58177 -1.84109,-1.03032 -1.84109,-1.03033 -10.78137,5.30152 -10.78137,5.30151 -9.44079,0.35713 -9.44079,0.35713 -6.66667,0.14366 -6.66667,0.14366 1.68269,1.06817 1.68268,1.06817 -10.34935,-0.008 -10.34935,-0.008 z m -235.56123,-115.63012 0.43877,-2.99253 -0.95723,-2.23636 -0.95723,-2.23637 -0.26168,-2.37347 -0.26167,-2.37347 -7.17318,-6.52589 -7.17318,-6.52589 -3.00017,-0.57351 -3.00018,-0.57352 -0.70087,1.47288 -0.70087,1.47287 0.79704,-3.16646 0.79704,-3.16646 -1.80935,-1.14645 -1.80935,-1.14646 -0.78598,-0.0204 -0.78598,-0.0204 -1.61558,3.54581 -1.61558,3.54581 1.73489,1.10044 1.7349,1.10044 -1.18182,0.0204 -1.18182,0.0204 3.49434,3.49434 3.49433,3.49433 -0.63819,1.03262 -0.63819,1.03262 2.13068,0.81762 2.13068,0.81762 -0.77477,2.019 -0.77476,2.019 2.63643,2.63643 2.63642,2.63642 h 1.33333 1.33334 v 1.41202 1.41203 l 1.33333,-0.82405 1.33333,-0.82405 v 2.15738 2.15738 l 1.32278,-0.81752 1.32277,-0.81752 2.3439,1.36252 2.34389,1.36251 1.33333,-0.39479 1.33333,-0.39478 z"
       id="path1" />
  </g>
</svg>
